{"accessors" : [{"bufferView" : 0, "byteOffset" : 0, "componentType" : 5123, "count" : 480, "type" : "SCALAR", "max" : [479], "min" : [0]}, {"bufferView" : 1, "byteOffset" : 0, "componentType" : 5126, "count" : 480, "type" : "VEC3", "max" : [8.084949493408203, 7.801519393920898, 1.3140028715133667], "min" : [-2.080474853515625, -1.6221994161605835, -1.4719887971878052]}, {"bufferView" : 1, "byteOffset" : 12, "componentType" : 5126, "count" : 480, "type" : "VEC3", "max" : [0.9641072154045105, 0.9681300520896912, 0.9907413125038147], "min" : [-0.9966603517532349, -0.99908047914505, -0.9849143028259277]}, {"bufferView" : 1, "byteOffset" : 24, "componentType" : 5126, "count" : 480, "type" : "VEC2", "max" : [0.875, 1], "min" : [0.125, 0]}, {"bufferView" : 1, "byteOffset" : 32, "componentType" : 5126, "count" : 480, "type" : "VEC4", "max" : [0.9646862745285034, 0.7230551242828369, 0.012286488898098469, 1], "min" : [0.02315336838364601, 0.011612244881689548, 0, 1]}], "asset" : {"generator" : "Aspose.3D 21.1", "version" : "2.0"}, "buffers" : [{"uri" : "buffer.bin", "byteLength" : 24008}], "bufferViews" : [{"buffer" : 0, "byteOffset" : 0, "byteLength" : 960, "target" : 34963}, {"buffer" : 0, "byteOffset" : 964, "byteLength" : 23040, "byteStride" : 48, "target" : 34962}], "materials" : [{"pbrMetallicRoughness" : {"baseColorFactor" : [1, 1, 1, 1], "metallicFactor" : 0, "roughnessFactor" : 0.4000000059604645}, "emissiveFactor" : [0, 0, 0], "alphaMode" : "OPAQUE", "doubleSided" : true}], "meshes" : [{"primitives" : [{"attributes" : {"POSITION" : 1, "NORMAL" : 2, "TEXCOORD_0" : 3, "COLOR" : 4}, "indices" : 0, "material" : 0, "mode" : 4}]}], "nodes" : [{"matrix" : [0.7776179953729052, -0.6287370266271353, 0, 0, 0.6287370266271353, 0.7776179953729052, 0, 0, 0, 0, 1, 0, -4.646442413330078, 2.4631738662719727, 0, 1], "mesh" : 0, "name" : "Cube"}], "scene" : 0, "scenes" : [{"nodes" : [0]}]}